<svg xmlns="http://www.w3.org/2000/svg" viewBox="0 0 400 240"><rect width="400" height="240" fill="#111111"/><circle cx="9" cy="9" r="3" fill="#00B341"/><circle cx="9" cy="27" r="3" fill="#00B341"/><circle cx="9" cy="45" r="3" fill="#00B341"/><circle cx="9" cy="63" r="3" fill="#00B341"/><circle cx="9" cy="81" r="3" fill="#00B341"/><circle cx="9" cy="99" r="3" fill="#00B341"/><circle cx="9" cy="117" r="3" fill="#00B341"/><circle cx="9" cy="135" r="3" fill="#00B341"/><circle cx="9" cy="153" r="3" fill="#00B341"/><circle cx="9" cy="171" r="3" fill="#00B341"/><circle cx="9" cy="189" r="3" fill="#00B341"/><circle cx="9" cy="207" r="3" fill="#00B341"/><circle cx="9" cy="225" r="3" fill="#00B341"/><circle cx="27" cy="9" r="3" fill="#00B341"/><circle cx="27" cy="27" r="3" fill="#00B341"/><circle cx="27" cy="45" r="3" fill="#00B341"/><circle cx="27" cy="63" r="3" fill="#00B341"/><circle cx="27" cy="81" r="3" fill="#00B341"/><circle cx="27" cy="99" r="3" fill="#00B341"/><circle cx="27" cy="117" r="3" fill="#00B341"/><circle cx="27" cy="135" r="3" fill="#00B341"/><circle cx="27" cy="153" r="3" fill="#00B341"/><circle cx="27" cy="171" r="3" fill="#00B341"/><circle cx="27" cy="189" r="3" fill="#00B341"/><circle cx="27" cy="207" r="3" fill="#00B341"/><circle cx="27" cy="225" r="3" fill="#00B341"/><circle cx="45" cy="9" r="3" fill="#00B341"/><circle cx="45" cy="27" r="3" fill="#00B341"/><circle cx="45" cy="45" r="3" fill="#00B341"/><circle cx="45" cy="63" r="3" fill="#00B341"/><circle cx="45" cy="81" r="3" fill="#00B341"/><circle cx="45" cy="99" r="3" fill="#00B341"/><circle cx="45" cy="117" r="3" fill="#00B341"/><circle cx="45" cy="135" r="3" fill="#00B341"/><circle cx="45" cy="153" r="3" fill="#00B341"/><circle cx="45" cy="171" r="3" fill="#00B341"/><circle cx="45" cy="189" r="3" fill="#00B341"/><circle cx="45" cy="207" r="3" fill="#00B341"/><circle cx="45" cy="225" r="3" fill="#00B341"/><circle cx="63" cy="9" r="3" fill="#00B341"/><circle cx="63" cy="27" r="3" fill="#00B341"/><circle cx="63" cy="45" r="3" fill="#00B341"/><circle cx="63" cy="63" r="3" fill="#00B341"/><circle cx="63" cy="81" r="3" fill="#00B341"/><circle cx="63" cy="99" r="3" fill="#00B341"/><circle cx="63" cy="117" r="3" fill="#00B341"/><circle cx="63" cy="135" r="3" fill="#00B341"/><circle cx="63" cy="153" r="3" fill="#00B341"/><circle cx="63" cy="171" r="3" fill="#00B341"/><circle cx="63" cy="189" r="3" fill="#00B341"/><circle cx="63" cy="207" r="3" fill="#00B341"/><circle cx="63" cy="225" r="3" fill="#00B341"/><circle cx="81" cy="9" r="3" fill="#00B341"/><circle cx="81" cy="27" r="3" fill="#00B341"/><circle cx="81" cy="45" r="3" fill="#00B341"/><circle cx="81" cy="63" r="3" fill="#00B341"/><circle cx="81" cy="81" r="3" fill="#00B341"/><circle cx="81" cy="99" r="3" fill="#00B341"/><circle cx="81" cy="117" r="3" fill="#00B341"/><circle cx="81" cy="135" r="3" fill="#00B341"/><circle cx="81" cy="153" r="3" fill="#00B341"/><circle cx="81" cy="171" r="3" fill="#00B341"/><circle cx="81" cy="189" r="3" fill="#00B341"/><circle cx="81" cy="207" r="3" fill="#00B341"/><circle cx="81" cy="225" r="3" fill="#00B341"/><circle cx="99" cy="9" r="3" fill="#00B341"/><circle cx="99" cy="27" r="3" fill="#00B341"/><circle cx="99" cy="45" r="3" fill="#00B341"/><circle cx="99" cy="63" r="3" fill="#00B341"/><circle cx="99" cy="81" r="3" fill="#00B341"/><circle cx="99" cy="99" r="3" fill="#00B341"/><circle cx="99" cy="117" r="3" fill="#00B341"/><circle cx="99" cy="135" r="3" fill="#00B341"/><circle cx="99" cy="153" r="3" fill="#00B341"/><circle cx="99" cy="171" r="3" fill="#00B341"/><circle cx="99" cy="189" r="3" fill="#00B341"/><circle cx="99" cy="207" r="3" fill="#00B341"/><circle cx="99" cy="225" r="3" fill="#00B341"/><circle cx="117" cy="9" r="3" fill="#00B341"/><circle cx="117" cy="27" r="3" fill="#00B341"/><circle cx="117" cy="45" r="3" fill="#00B341"/><circle cx="117" cy="63" r="3" fill="#00B341"/><circle cx="117" cy="81" r="3" fill="#00B341"/><circle cx="117" cy="99" r="3" fill="#00B341"/><circle cx="117" cy="117" r="3" fill="#00B341"/><circle cx="117" cy="135" r="3" fill="#00B341"/><circle cx="117" cy="153" r="3" fill="#00B341"/><circle cx="117" cy="171" r="3" fill="#00B341"/><circle cx="117" cy="189" r="3" fill="#00B341"/><circle cx="117" cy="207" r="3" fill="#00B341"/><circle cx="117" cy="225" r="3" fill="#00B341"/><circle cx="135" cy="9" r="3" fill="#00B341"/><circle cx="135" cy="27" r="3" fill="#00B341"/><circle cx="135" cy="45" r="3" fill="#00B341"/><circle cx="135" cy="63" r="3" fill="#00B341"/><circle cx="135" cy="81" r="3" fill="#00B341"/><circle cx="135" cy="99" r="3" fill="#00B341"/><circle cx="135" cy="117" r="3" fill="#00B341"/><circle cx="135" cy="135" r="3" fill="#00B341"/><circle cx="135" cy="153" r="3" fill="#00B341"/><circle cx="135" cy="171" r="3" fill="#00B341"/><circle cx="135" cy="189" r="3" fill="#00B341"/><circle cx="135" cy="207" r="3" fill="#00B341"/><circle cx="135" cy="225" r="3" fill="#00B341"/><circle cx="153" cy="9" r="3" fill="#00B341"/><circle cx="153" cy="27" r="3" fill="#00B341"/><circle cx="153" cy="45" r="3" fill="#00B341"/><circle cx="153" cy="63" r="3" fill="#00B341"/><circle cx="153" cy="81" r="3" fill="#00B341"/><circle cx="153" cy="99" r="3" fill="#00B341"/><circle cx="153" cy="117" r="3" fill="#00B341"/><circle cx="153" cy="135" r="3" fill="#00B341"/><circle cx="153" cy="153" r="3" fill="#00B341"/><circle cx="153" cy="171" r="3" fill="#00B341"/><circle cx="153" cy="189" r="3" fill="#00B341"/><circle cx="153" cy="207" r="3" fill="#00B341"/><circle cx="153" cy="225" r="3" fill="#00B341"/><circle cx="171" cy="9" r="3" fill="#00B341"/><circle cx="171" cy="27" r="3" fill="#00B341"/><circle cx="171" cy="45" r="3" fill="#00B341"/><circle cx="171" cy="63" r="3" fill="#00B341"/><circle cx="171" cy="81" r="3" fill="#00B341"/><circle cx="171" cy="99" r="3" fill="#00B341"/><circle cx="171" cy="117" r="3" fill="#00B341"/><circle cx="171" cy="135" r="3" fill="#00B341"/><circle cx="171" cy="153" r="3" fill="#00B341"/><circle cx="171" cy="171" r="3" fill="#00B341"/><circle cx="171" cy="189" r="3" fill="#00B341"/><circle cx="171" cy="207" r="3" fill="#00B341"/><circle cx="171" cy="225" r="3" fill="#00B341"/><circle cx="189" cy="9" r="3" fill="#00B341"/><circle cx="189" cy="27" r="3" fill="#00B341"/><circle cx="189" cy="45" r="3" fill="#00B341"/><circle cx="189" cy="63" r="3" fill="#00B341"/><circle cx="189" cy="81" r="3" fill="#00B341"/><circle cx="189" cy="99" r="3" fill="#00B341"/><circle cx="189" cy="117" r="3" fill="#00B341"/><circle cx="189" cy="135" r="3" fill="#00B341"/><circle cx="189" cy="153" r="3" fill="#00B341"/><circle cx="189" cy="171" r="3" fill="#00B341"/><circle cx="189" cy="189" r="3" fill="#00B341"/><circle cx="189" cy="207" r="3" fill="#00B341"/><circle cx="189" cy="225" r="3" fill="#00B341"/><circle cx="207" cy="9" r="3" fill="#00B341"/><circle cx="207" cy="27" r="3" fill="#00B341"/><circle cx="207" cy="45" r="3" fill="#00B341"/><circle cx="207" cy="63" r="3" fill="#00B341"/><circle cx="207" cy="81" r="3" fill="#00B341"/><circle cx="207" cy="99" r="3" fill="#00B341"/><circle cx="207" cy="117" r="3" fill="#00B341"/><circle cx="207" cy="135" r="3" fill="#00B341"/><circle cx="207" cy="153" r="3" fill="#00B341"/><circle cx="207" cy="171" r="3" fill="#00B341"/><circle cx="207" cy="189" r="3" fill="#00B341"/><circle cx="207" cy="207" r="3" fill="#00B341"/><circle cx="207" cy="225" r="3" fill="#00B341"/><circle cx="225" cy="9" r="3" fill="#00B341"/><circle cx="225" cy="27" r="3" fill="#00B341"/><circle cx="225" cy="45" r="3" fill="#00B341"/><circle cx="225" cy="63" r="3" fill="#00B341"/><circle cx="225" cy="81" r="3" fill="#00B341"/><circle cx="225" cy="99" r="3" fill="#00B341"/><circle cx="225" cy="117" r="3" fill="#00B341"/><circle cx="225" cy="135" r="3" fill="#00B341"/><circle cx="225" cy="153" r="3" fill="#00B341"/><circle cx="225" cy="171" r="3" fill="#00B341"/><circle cx="225" cy="189" r="3" fill="#00B341"/><circle cx="225" cy="207" r="3" fill="#00B341"/><circle cx="225" cy="225" r="3" fill="#00B341"/><circle cx="243" cy="9" r="3" fill="#00B341"/><circle cx="243" cy="27" r="3" fill="#00B341"/><circle cx="243" cy="45" r="3" fill="#00B341"/><circle cx="243" cy="63" r="3" fill="#00B341"/><circle cx="243" cy="81" r="3" fill="#00B341"/><circle cx="243" cy="99" r="3" fill="#00B341"/><circle cx="243" cy="117" r="3" fill="#00B341"/><circle cx="243" cy="135" r="3" fill="#00B341"/><circle cx="243" cy="153" r="3" fill="#00B341"/><circle cx="243" cy="171" r="3" fill="#00B341"/><circle cx="243" cy="189" r="3" fill="#00B341"/><circle cx="243" cy="207" r="3" fill="#00B341"/><circle cx="243" cy="225" r="3" fill="#00B341"/><circle cx="261" cy="9" r="3" fill="#00B341"/><circle cx="261" cy="27" r="3" fill="#00B341"/><circle cx="261" cy="45" r="3" fill="#00B341"/><circle cx="261" cy="63" r="3" fill="#00B341"/><circle cx="261" cy="81" r="3" fill="#00B341"/><circle cx="261" cy="99" r="3" fill="#00B341"/><circle cx="261" cy="117" r="3" fill="#00B341"/><circle cx="261" cy="135" r="3" fill="#00B341"/><circle cx="261" cy="153" r="3" fill="#00B341"/><circle cx="261" cy="171" r="3" fill="#00B341"/><circle cx="261" cy="189" r="3" fill="#00B341"/><circle cx="261" cy="207" r="3" fill="#00B341"/><circle cx="261" cy="225" r="3" fill="#00B341"/><circle cx="279" cy="9" r="3" fill="#00B341"/><circle cx="279" cy="27" r="3" fill="#00B341"/><circle cx="279" cy="45" r="3" fill="#00B341"/><circle cx="279" cy="63" r="3" fill="#00B341"/><circle cx="279" cy="81" r="3" fill="#00B341"/><circle cx="279" cy="99" r="3" fill="#00B341"/><circle cx="279" cy="117" r="3" fill="#00B341"/><circle cx="279" cy="135" r="3" fill="#00B341"/><circle cx="279" cy="153" r="3" fill="#00B341"/><circle cx="279" cy="171" r="3" fill="#00B341"/><circle cx="279" cy="189" r="3" fill="#00B341"/><circle cx="279" cy="207" r="3" fill="#00B341"/><circle cx="279" cy="225" r="3" fill="#00B341"/><circle cx="297" cy="9" r="3" fill="#00B341"/><circle cx="297" cy="27" r="3" fill="#00B341"/><circle cx="297" cy="45" r="3" fill="#00B341"/><circle cx="297" cy="63" r="3" fill="#00B341"/><circle cx="297" cy="81" r="3" fill="#00B341"/><circle cx="297" cy="99" r="3" fill="#00B341"/><circle cx="297" cy="117" r="3" fill="#00B341"/><circle cx="297" cy="135" r="3" fill="#00B341"/><circle cx="297" cy="153" r="3" fill="#00B341"/><circle cx="297" cy="171" r="3" fill="#00B341"/><circle cx="297" cy="189" r="3" fill="#00B341"/><circle cx="297" cy="207" r="3" fill="#00B341"/><circle cx="297" cy="225" r="3" fill="#00B341"/><circle cx="315" cy="9" r="3" fill="#00B341"/><circle cx="315" cy="27" r="3" fill="#00B341"/><circle cx="315" cy="45" r="3" fill="#00B341"/><circle cx="315" cy="63" r="3" fill="#00B341"/><circle cx="315" cy="81" r="3" fill="#00B341"/><circle cx="315" cy="99" r="3" fill="#00B341"/><circle cx="315" cy="117" r="3" fill="#00B341"/><circle cx="315" cy="135" r="3" fill="#00B341"/><circle cx="315" cy="153" r="3" fill="#00B341"/><circle cx="315" cy="171" r="3" fill="#00B341"/><circle cx="315" cy="189" r="3" fill="#00B341"/><circle cx="315" cy="207" r="3" fill="#00B341"/><circle cx="315" cy="225" r="3" fill="#00B341"/><circle cx="333" cy="9" r="3" fill="#00B341"/><circle cx="333" cy="27" r="3" fill="#00B341"/><circle cx="333" cy="45" r="3" fill="#00B341"/><circle cx="333" cy="63" r="3" fill="#00B341"/><circle cx="333" cy="81" r="3" fill="#00B341"/><circle cx="333" cy="99" r="3" fill="#00B341"/><circle cx="333" cy="117" r="3" fill="#00B341"/><circle cx="333" cy="135" r="3" fill="#00B341"/><circle cx="333" cy="153" r="3" fill="#00B341"/><circle cx="333" cy="171" r="3" fill="#00B341"/><circle cx="333" cy="189" r="3" fill="#00B341"/><circle cx="333" cy="207" r="3" fill="#00B341"/><circle cx="333" cy="225" r="3" fill="#00B341"/><circle cx="351" cy="9" r="3" fill="#00B341"/><circle cx="351" cy="27" r="3" fill="#00B341"/><circle cx="351" cy="45" r="3" fill="#00B341"/><circle cx="351" cy="63" r="3" fill="#00B341"/><circle cx="351" cy="81" r="3" fill="#00B341"/><circle cx="351" cy="99" r="3" fill="#00B341"/><circle cx="351" cy="117" r="3" fill="#00B341"/><circle cx="351" cy="135" r="3" fill="#00B341"/><circle cx="351" cy="153" r="3" fill="#00B341"/><circle cx="351" cy="171" r="3" fill="#00B341"/><circle cx="351" cy="189" r="3" fill="#00B341"/><circle cx="351" cy="207" r="3" fill="#00B341"/><circle cx="351" cy="225" r="3" fill="#00B341"/><circle cx="369" cy="9" r="3" fill="#00B341"/><circle cx="369" cy="27" r="3" fill="#00B341"/><circle cx="369" cy="45" r="3" fill="#00B341"/><circle cx="369" cy="63" r="3" fill="#00B341"/><circle cx="369" cy="81" r="3" fill="#00B341"/><circle cx="369" cy="99" r="3" fill="#00B341"/><circle cx="369" cy="117" r="3" fill="#00B341"/><circle cx="369" cy="135" r="3" fill="#00B341"/><circle cx="369" cy="153" r="3" fill="#00B341"/><circle cx="369" cy="171" r="3" fill="#00B341"/><circle cx="369" cy="189" r="3" fill="#00B341"/><circle cx="369" cy="207" r="3" fill="#00B341"/><circle cx="369" cy="225" r="3" fill="#00B341"/><circle cx="387" cy="9" r="3" fill="#00B341"/><circle cx="387" cy="27" r="3" fill="#00B341"/><circle cx="387" cy="45" r="3" fill="#00B341"/><circle cx="387" cy="63" r="3" fill="#00B341"/><circle cx="387" cy="81" r="3" fill="#00B341"/><circle cx="387" cy="99" r="3" fill="#00B341"/><circle cx="387" cy="117" r="3" fill="#00B341"/><circle cx="387" cy="135" r="3" fill="#00B341"/><circle cx="387" cy="153" r="3" fill="#00B341"/><circle cx="387" cy="171" r="3" fill="#00B341"/><circle cx="387" cy="189" r="3" fill="#00B341"/><circle cx="387" cy="207" r="3" fill="#00B341"/><circle cx="387" cy="225" r="3" fill="#00B341"/></svg>