<svg xmlns="http://www.w3.org/2000/svg" viewBox="0 0 500 240"><rect width="500" height="240" fill="#111111"/><polygon points="-200.0,0 -175.0,0 -343.0,240 -368.0,240" fill="#FFD700"/><polygon points="-175.0,0 -150.0,0 -318.0,240 -343.0,240" fill="#006B2F"/><polygon points="-150.0,0 -125.0,0 -293.0,240 -318.0,240" fill="#FFD700"/><polygon points="-125.0,0 -100.0,0 -268.0,240 -293.0,240" fill="#006B2F"/><polygon points="-100.0,0 -75.0,0 -243.0,240 -268.0,240" fill="#FFD700"/><polygon points="-75.0,0 -50.0,0 -218.0,240 -243.0,240" fill="#006B2F"/><polygon points="-50.0,0 -25.0,0 -193.0,240 -218.0,240" fill="#FFD700"/><polygon points="-25.0,0 0.0,0 -168.0,240 -193.0,240" fill="#006B2F"/><polygon points="0.0,0 25.0,0 -143.0,240 -168.0,240" fill="#FFD700"/><polygon points="25.0,0 50.0,0 -118.0,240 -143.0,240" fill="#006B2F"/><polygon points="50.0,0 75.0,0 -93.0,240 -118.0,240" fill="#FFD700"/><polygon points="75.0,0 100.0,0 -68.0,240 -93.0,240" fill="#006B2F"/><polygon points="100.0,0 125.0,0 -43.0,240 -68.0,240" fill="#FFD700"/><polygon points="125.0,0 150.0,0 -18.0,240 -43.0,240" fill="#006B2F"/><polygon points="150.0,0 175.0,0 7.0,240 -18.0,240" fill="#FFD700"/><polygon points="175.0,0 200.0,0 32.0,240 7.0,240" fill="#006B2F"/><polygon points="200.0,0 225.0,0 57.0,240 32.0,240" fill="#FFD700"/><polygon points="225.0,0 250.0,0 82.0,240 57.0,240" fill="#006B2F"/><polygon points="250.0,0 275.0,0 107.0,240 82.0,240" fill="#FFD700"/><polygon points="275.0,0 300.0,0 132.0,240 107.0,240" fill="#006B2F"/><polygon points="300.0,0 325.0,0 157.0,240 132.0,240" fill="#FFD700"/><polygon points="325.0,0 350.0,0 182.0,240 157.0,240" fill="#006B2F"/><polygon points="350.0,0 375.0,0 207.0,240 182.0,240" fill="#FFD700"/><polygon points="375.0,0 400.0,0 232.0,240 207.0,240" fill="#006B2F"/><polygon points="400.0,0 425.0,0 257.0,240 232.0,240" fill="#FFD700"/><polygon points="425.0,0 450.0,0 282.0,240 257.0,240" fill="#006B2F"/><polygon points="450.0,0 475.0,0 307.0,240 282.0,240" fill="#FFD700"/><polygon points="475.0,0 500.0,0 332.0,240 307.0,240" fill="#006B2F"/><polygon points="500.0,0 525.0,0 357.0,240 332.0,240" fill="#FFD700"/><polygon points="525.0,0 550.0,0 382.0,240 357.0,240" fill="#006B2F"/><polygon points="550.0,0 575.0,0 407.0,240 382.0,240" fill="#FFD700"/><polygon points="575.0,0 600.0,0 432.0,240 407.0,240" fill="#006B2F"/><polygon points="600.0,0 625.0,0 457.0,240 432.0,240" fill="#FFD700"/><polygon points="625.0,0 650.0,0 482.0,240 457.0,240" fill="#006B2F"/><polygon points="650.0,0 675.0,0 507.0,240 482.0,240" fill="#FFD700"/><polygon points="675.0,0 700.0,0 532.0,240 507.0,240" fill="#006B2F"/><polygon points="700.0,0 725.0,0 557.0,240 532.0,240" fill="#FFD700"/><polygon points="725.0,0 750.0,0 582.0,240 557.0,240" fill="#006B2F"/><polygon points="750.0,0 775.0,0 607.0,240 582.0,240" fill="#FFD700"/><polygon points="775.0,0 800.0,0 632.0,240 607.0,240" fill="#006B2F"/><polygon points="800.0,0 825.0,0 657.0,240 632.0,240" fill="#FFD700"/><polygon points="825.0,0 850.0,0 682.0,240 657.0,240" fill="#006B2F"/></svg>